<svg width="499" height="326" viewBox="0 0 499 326" fill="none" xmlns="http://www.w3.org/2000/svg">
<path d="M250 323C204.758 314.152 192.871 298.976 192 256.5C237.106 236.13 262.394 237.101 307.5 256.5C308.22 299.497 298.056 315.839 250 323Z" fill="#A39171" stroke="black" stroke-width="5"/>
<ellipse cx="273.461" cy="294.047" rx="5" ry="11" transform="rotate(-10 273.461 294.047)" fill="black"/>
<ellipse rx="5" ry="11" transform="matrix(-0.984808 -0.173648 -0.173648 0.984808 227.834 293.701)" fill="black"/>
<path d="M228.985 131.826C182.296 147.037 177.97 178.445 190.352 252.665C190.674 254.594 192.745 255.725 194.542 254.954C236.785 236.829 261.942 237.462 304.269 255.133C305.966 255.841 307.922 254.869 308.372 253.087C323.878 191.695 320.549 163.603 280 135C280 124.272 280.56 119.667 283.677 115.289C285.158 113.21 284.104 110.103 281.559 109.912C253.895 107.83 242.446 113.376 230.594 130.627C230.21 131.186 229.63 131.616 228.985 131.826Z" fill="#6D4C3D"/>
<path d="M280 135C280 124.272 280.56 119.667 283.677 115.289C285.158 113.21 284.104 110.103 281.559 109.912C253.895 107.83 242.446 113.376 230.594 130.627C230.21 131.186 229.63 131.616 228.985 131.826C182.296 147.037 177.97 178.445 190.352 252.665C190.674 254.594 192.745 255.725 194.542 254.954C236.785 236.829 261.942 237.462 304.269 255.133C305.966 255.841 307.922 254.869 308.372 253.087C323.878 191.695 320.549 163.603 280 135ZM280 135C277.839 142.694 270.5 147.5 264 151.5" stroke="black" stroke-width="5"/>
<path d="M231 187L206 210.158L231 227" stroke="black" stroke-width="5"/>
<path d="M270 187L295 210.158L270 227" stroke="black" stroke-width="5"/>
<path d="M314.282 179.465C315.022 181.313 316.833 182.55 318.823 182.601C382.331 184.232 385.446 177.025 425.5 157.509C488.486 122.134 505.309 102.908 491.683 70.4428C491.564 70.1592 491.41 69.8714 491.235 69.6186C480.628 54.2968 462.101 63.1223 436.515 77.1456C433.275 78.9217 429.287 76.6982 429.091 73.008C427.249 38.3194 424.86 22.3703 399.5 15.5092C374.471 10.2312 358.799 24.7333 351.787 57.6996C350.664 62.9807 343.051 63.7069 341.598 58.5067C333.271 28.6943 328.514 7.29556 298.961 3.13728C298.34 3.04982 297.678 3.09039 297.071 3.25021C278.613 8.1105 273.87 13.7854 266 31.0092C258 48.5184 279.953 82.9404 291 92.0092C301.793 100.87 322.468 125.202 306.675 155.372C305.964 156.729 305.832 158.339 306.401 159.761L314.282 179.465Z" fill="#A39171" stroke="black" stroke-width="5"/>
<path d="M184.812 179.456C184.072 181.304 182.261 182.541 180.271 182.592C116.763 184.222 113.648 177.016 73.594 157.5C10.6083 122.125 -6.21476 102.899 7.41057 70.4336C7.52959 70.15 7.68421 69.8622 7.85926 69.6094C18.4663 54.2876 36.9927 63.1131 62.5788 77.1364C65.8193 78.9125 69.8066 76.689 70.0026 72.9988C71.845 38.3102 74.2343 22.361 99.594 15.5C124.623 10.222 140.295 24.7241 147.307 57.6904C148.43 62.9715 156.043 63.6977 157.496 58.4975C165.823 28.6851 170.58 7.28636 200.133 3.12808C200.754 3.04062 201.416 3.08119 202.023 3.24101C220.481 8.1013 225.224 13.7762 233.094 31C241.094 48.5092 219.14 82.9312 208.094 92C197.301 100.861 176.626 125.192 192.419 155.363C193.13 156.72 193.262 158.33 192.693 159.751L184.812 179.456Z" fill="#A39171" stroke="black" stroke-width="5"/>
</svg>
